PathFileType	4	(X/Y/Z)	C:\Users\Biomechanik\Documents\powerlifting_model\powerlifing_model\simulations\Athlete_03\25_03_31\Walking_01\c3dfile.trc
DataRate	CameraRate	NumFrames	NumMarkers	Units	OrigDataRate	OrigDataStartFrame	OrigNumFrames
200.0	200.0	4	53	mm	200.0	904	239	
Frame#	Time	GLAB			RFHD			LFHD			C7			T6			SPINMOL			SPINM2			SPINM3			T12			BELTOL			BELT2			BELT3			SACROL			SACR2			SACR3			LTHOL			LTH2			LTH3			LSHAOL			LSHA2			LSHA3			LHEE			LTOE			LM5			RTHOL			RTH2			RTH3			RSHAOL			RSHA2			RSHA3			RHEE			RTOE			RM5			STRN			XIPH			LACR			LUAOL			LUA2			LUA3			LLAOL			LLA2			LLA3			LWRR			LWRU			RACR			RUAOL			RUA2			RUA3			RLAOL			RLA2			RLA3			RWRR			RWRU			
		X1	Y1	Z1	X2	Y2	Z2	X3	Y3	Z3	X4	Y4	Z4	X5	Y5	Z5	X6	Y6	Z6	X7	Y7	Z7	X8	Y8	Z8	X9	Y9	Z9	X10	Y10	Z10	X11	Y11	Z11	X12	Y12	Z12	X13	Y13	Z13	X14	Y14	Z14	X15	Y15	Z15	X16	Y16	Z16	X17	Y17	Z17	X18	Y18	Z18	X19	Y19	Z19	X20	Y20	Z20	X21	Y21	Z21	X22	Y22	Z22	X23	Y23	Z23	X24	Y24	Z24	X25	Y25	Z25	X26	Y26	Z26	X27	Y27	Z27	X28	Y28	Z28	X29	Y29	Z29	X30	Y30	Z30	X31	Y31	Z31	X32	Y32	Z32	X33	Y33	Z33	X34	Y34	Z34	X35	Y35	Z35	X36	Y36	Z36	X37	Y37	Z37	X38	Y38	Z38	X39	Y39	Z39	X40	Y40	Z40	X41	Y41	Z41	X42	Y42	Z42	X43	Y43	Z43	X44	Y44	Z44	X45	Y45	Z45	X46	Y46	Z46	X47	Y47	Z47	X48	Y48	Z48	X49	Y49	Z49	X50	Y50	Z50	X51	Y51	Z51	X52	Y52	Z52	X53	Y53	Z53	
904	4.515	187.72128	1587.739	-892.13367	251.33383	1612.6571	-839.74719	113.06802	1611.4133	-851.07495	171.79185	1429.2631	-665.06891	172.16893	1260.8258	-604.16064	152.09384	1220.0861	-594.83466	201.82745	1213.9409	-590.57269	169.81337	1156.4	-599.48029	175.82327	1091.0166	-623.55695	165.57072	1057.6713	-585.12439	215.76517	1055.1843	-587.62994	186.64388	995.67542	-579.65735	171.84174	951.19385	-594.5791	222.82065	946.13525	-602.35919	194.48259	890.76361	-578.37927	4.1551533	682.29468	-625.66168	40.382759	640.88385	-568.04108	21.976843	625.14594	-611.65979	32.881718	335.20712	-531.22742	49.476357	285.46664	-471.10699	43.288864	274.7399	-520.08453	144.6357	97.600647	-415.64713	127.54559	43.00816	-626.77814	30.570045	31.49328	-572.00677	360.12863	657.03394	-768.53937	374.52588	626.10901	-840.3465	350.32584	606.33661	-802.31641	347.30045	331.01718	-888.32477	353.58801	278.29739	-945.75079	332.91626	272.49673	-900.88818	232.90767	59.751907	-970.23035	268.57935	125.26611	-1167.1167	359.69617	81.114014	-1120.5492	178.11343	1325.6604	-834.40466	175.84456	1181.2511	-845.44867	1.5511266	1392.4895	-745.63336	-105.5833	1246.9282	-762.7066	-126.51065	1184.4856	-762.24976	-104.11268	1197.9871	-806.77686	-152.77536	1009.7838	-877.30042	-134.71724	932.81146	-880.6767	-144.47275	964.68646	-918.12488	-131.74179	894.6355	-993.99011	-63.966595	928.74066	-1019.6584	345.91675	1384.2195	-743.46185	444.6983	1242.2495	-695.04639	457.42932	1178.0726	-707.89899	460.8028	1190.0137	-657.82263	505.05542	972.99805	-652.84521	545.31732	916.35229	-691.96216	513.75348	909.6911	-655.86536	540.27307	825.56531	-675.22241	479.25937	799.24811	-723.24597
905	4.52	188.62065	1586.6196	-898.98602	252.28	1611.4644	-846.60669	114.00383	1610.3542	-857.89288	172.63704	1428.2013	-671.85944	173.01718	1259.7677	-610.92554	152.92667	1219.036	-601.54718	202.6637	1212.8535	-597.36926	170.59294	1155.335	-606.20673	176.49226	1089.9136	-630.31476	166.28665	1056.606	-591.94275	216.4673	1054.0337	-594.54724	187.25983	994.58636	-586.50793	172.4455	950.46643	-601.3714	223.25739	945.12921	-609.54608	194.9529	890.03235	-584.97729	4.2727704	682.29358	-630.5036	40.907978	641.18475	-572.92169	22.081257	625.20691	-616.27441	32.691391	335.82538	-533.96643	49.317402	286.62479	-473.42294	43.139633	275.47958	-522.3114	144.44115	99.239624	-416.29651	127.53755	42.902149	-626.91406	30.564457	31.509451	-572.19598	359.35226	655.37781	-774.07397	374.74377	624.18494	-845.58228	349.68259	604.64899	-807.9054	347.09158	329.65955	-897.60504	353.4682	278.04581	-956.10803	332.90491	271.38858	-911.28198	233.62469	59.265514	-984.89221	267.96667	129.3042	-1180.5424	359.43387	84.022003	-1135.618	178.75554	1324.5045	-841.26556	176.26205	1180.1229	-852.25177	2.3444803	1391.5424	-752.32379	-104.8162	1246.1331	-769.58923	-125.79149	1183.6982	-769.34216	-103.44907	1197.3562	-813.84766	-152.19748	1009.6797	-885.35962	-134.13359	932.72577	-889.30383	-143.84863	964.8949	-926.51941	-131.05609	895.44244	-1002.9023	-63.231869	929.74481	-1028.2279	346.67612	1383.033	-750.37115	445.33627	1241.1415	-701.55725	458.11511	1176.9281	-714.20801	461.37396	1189.0077	-664.16943	505.63455	971.98151	-658.60889	545.92908	915.24353	-697.53894	514.31488	908.66315	-661.48566	540.84644	824.48358	-680.60052	479.88156	798.06757	-728.71027
906	4.525	189.55499	1585.5171	-905.87415	253.26266	1610.288	-853.50476	114.97626	1609.3091	-864.74219	173.53224	1427.1434	-678.69696	173.89027	1258.7118	-617.74463	153.77846	1217.9904	-608.31824	203.51865	1211.7649	-604.22021	171.38257	1154.2726	-612.99292	177.15625	1088.8115	-637.13409	167.01289	1055.5419	-598.81366	217.17957	1052.8834	-601.5174	187.88521	993.49866	-593.41571	173.05493	949.71356	-608.21356	223.69646	944.10822	-616.7851	195.43448	889.26874	-591.66577	4.3950176	682.28284	-635.46881	41.426819	641.4552	-577.93573	22.182217	625.25244	-621.02472	32.482082	336.45865	-536.85632	49.119076	287.8244	-475.87433	42.974197	276.24585	-524.66956	144.2211	100.98784	-417.0072	127.53482	42.79155	-627.06177	30.560814	31.541222	-572.40363	358.72964	653.82086	-779.86273	375.01373	622.41486	-851.11359	349.18326	603.0863	-813.75531	346.92175	328.37839	-906.7345	353.34503	277.77945	-966.2099	332.90683	270.34885	-921.41809	234.28159	58.847027	-998.88318	267.25171	133.07164	-1193.3319	359.06888	86.729141	-1150.0288	179.4335	1323.3639	-848.17902	176.70779	1179.0114	-859.11182	3.1810584	1390.6133	-759.06134	-103.999	1245.3499	-776.50403	-125.02859	1182.9261	-776.45221	-102.73679	1196.7264	-820.93665	-151.58067	1009.5495	-893.36957	-133.51129	932.61755	-897.85022	-143.19495	965.06024	-934.84369	-130.35425	896.17657	-1011.7108	-62.488514	930.66174	-1036.7218	347.47647	1381.8466	-757.32751	446.00754	1240.0171	-708.15533	458.82932	1175.7701	-720.61792	461.98401	1187.9786	-670.61597	506.23792	970.94165	-664.51233	546.55408	914.11053	-703.271	514.89911	907.61212	-667.25256	541.42877	823.37726	-686.13586	480.50418	796.87476	-734.32385
907	4.53	190.52457	1584.4351	-912.80139	254.28224	1609.1316	-860.44501	115.98567	1608.2812	-871.62604	174.47852	1426.0924	-685.58588	174.78723	1257.6616	-624.62238	154.64795	1216.9534	-615.15204	204.39096	1210.6781	-611.13019	172.1805	1153.2164	-619.84302	177.81456	1087.7148	-644.01855	167.74837	1054.4833	-605.73883	217.90053	1051.7372	-608.54279	188.51932	992.41559	-600.38348	173.66733	948.93408	-615.11005	224.14085	943.0752	-624.06799	195.92458	888.47174	-598.44843	4.5202432	682.25928	-640.57202	41.931255	641.69165	-583.09406	22.277891	625.2796	-625.92444	32.254795	337.10876	-539.9054	48.883148	289.06812	-478.46957	42.793995	277.04001	-527.16663	143.97716	102.8518	-417.78836	127.53706	42.675213	-627.2218	30.558792	31.590343	-572.63208	358.26974	652.37164	-785.94513	375.31061	620.80994	-856.99097	348.82791	601.6546	-819.90265	346.78525	327.16772	-915.70807	353.22293	277.48166	-976.04254	332.9151	269.36539	-931.28436	234.87247	58.462242	-1012.1638	266.45087	136.49393	-1205.4716	358.61267	89.172752	-1163.7434	180.14905	1322.2429	-855.14899	177.18379	1177.9194	-866.03345	4.062386	1389.7073	-765.85065	-103.13143	1244.5847	-783.45648	-124.22236	1182.1757	-783.58313	-101.9763	1196.1028	-828.04816	-150.92628	1009.3956	-901.33063	-132.8517	932.48834	-906.31549	-142.51292	965.18408	-943.09814	-129.63733	896.83759	-1020.4161	-61.737572	931.49164	-1045.1415	348.319	1380.6641	-764.33368	446.71295	1238.8787	-714.8443	459.57227	1174.6016	-727.13342	462.6329	1186.9283	-677.16656	506.86438	969.88037	-670.55981	547.1925	912.95563	-709.1618	515.505	906.54022	-673.17035	542.01996	822.24896	-691.83319	481.12866	795.6712	-740.09094
